<?xml version="1.0" encoding="UTF-8" ?>
<!DOCTYPE svg PUBLIC "-//W3C//DTD SVG 1.1//EN" "http://www.w3.org/Graphics/SVG/1.1/DTD/svg11.dtd">
<svg width="1181pt" height="1181pt" viewBox="0 0 1181 1181" version="1.1" xmlns="http://www.w3.org/2000/svg">
<g id="#133148ff">
<path fill="#133148" opacity="1.00" d=" M 427.48 266.85 C 435.89 266.11 444.39 266.57 452.83 266.58 C 461.08 268.10 469.49 267.31 477.84 267.52 C 482.62 267.34 487.32 268.40 492.10 268.50 C 495.18 268.55 497.71 270.55 500.52 271.56 C 504.35 273.26 508.79 271.73 512.61 273.51 C 520.90 277.26 529.72 279.63 538.54 281.73 C 545.92 283.80 551.90 289.12 559.36 291.02 C 568.12 293.47 576.49 297.01 584.93 300.34 C 590.41 303.44 596.46 305.57 601.34 309.65 C 607.47 314.56 615.16 316.78 621.65 321.11 C 626.04 323.87 631.12 325.38 635.32 328.46 C 638.54 330.75 641.42 333.61 645.10 335.19 C 650.28 337.44 655.90 338.86 660.59 342.13 C 670.33 348.84 681.38 353.25 691.53 359.28 C 696.01 362.09 701.29 363.26 705.70 366.21 C 711.48 369.91 718.53 370.77 724.42 374.24 C 731.21 378.14 737.98 382.05 744.90 385.72 C 748.01 387.30 751.57 387.53 754.83 388.69 C 759.52 390.35 763.71 393.20 768.50 394.62 C 772.22 395.69 775.73 397.34 779.14 399.18 C 785.91 402.67 793.80 402.80 800.67 406.01 C 805.52 408.38 811.11 408.90 815.64 412.00 C 820.49 414.53 825.59 416.56 830.37 419.26 C 834.44 421.54 839.30 421.38 843.53 423.23 C 851.83 427.73 860.63 431.21 868.96 435.65 C 873.18 437.93 877.52 440.01 882.00 441.76 C 888.62 444.37 893.13 450.37 899.79 452.92 C 907.23 456.93 914.55 461.18 921.81 465.51 C 927.74 468.09 932.51 472.54 937.93 475.97 C 944.10 480.01 948.46 486.19 954.66 490.21 C 962.08 496.09 968.27 503.35 975.13 509.87 C 980.03 514.38 983.26 520.35 988.11 524.91 C 992.63 529.19 997.01 533.72 999.97 539.26 C 1009.09 553.27 1015.52 568.76 1024.21 583.02 C 1027.12 587.68 1028.38 593.09 1030.42 598.14 C 1031.76 601.57 1034.05 604.52 1035.47 607.92 C 1037.74 613.18 1039.61 618.60 1041.46 624.01 C 1042.99 628.39 1043.41 633.19 1045.95 637.18 C 1047.78 639.97 1048.56 643.22 1049.29 646.45 C 1050.19 650.48 1052.54 654.04 1053.26 658.13 C 1053.62 661.69 1053.19 665.39 1054.57 668.79 C 1057.17 675.93 1058.26 683.50 1060.64 690.71 C 1062.02 694.73 1061.10 699.09 1062.26 703.16 C 1063.10 707.32 1065.39 711.01 1066.39 715.12 C 1067.00 724.76 1065.69 734.53 1067.40 744.10 C 1067.67 751.35 1067.68 758.64 1067.39 765.89 C 1065.75 774.83 1067.07 783.96 1066.34 792.97 C 1065.32 796.39 1063.20 799.41 1062.52 802.95 C 1061.73 806.72 1060.93 810.53 1059.24 814.03 C 1055.99 820.66 1053.65 827.93 1048.48 833.41 C 1042.84 839.26 1038.62 846.22 1034.02 852.87 C 1029.52 859.91 1023.58 865.85 1018.18 872.18 C 1011.82 877.86 1004.52 882.42 998.28 888.25 C 994.11 892.29 988.58 894.43 984.25 898.25 C 980.40 901.67 975.38 903.12 971.06 905.78 C 966.76 908.14 962.52 910.92 957.61 911.78 C 953.82 912.44 950.16 913.59 946.50 914.69 C 943.18 915.78 939.66 915.28 936.26 915.67 C 932.08 916.57 928.53 919.78 924.09 919.47 C 915.36 919.44 906.64 919.43 897.92 919.47 C 894.21 919.69 890.85 917.98 887.49 916.72 C 884.05 915.39 880.38 914.93 876.78 914.39 C 872.33 913.74 868.36 911.51 864.07 910.35 C 855.36 908.18 846.44 906.61 838.15 903.10 C 834.68 901.82 830.93 901.22 827.77 899.20 C 822.34 895.71 815.79 894.78 810.02 892.01 C 805.41 889.77 800.20 888.94 795.86 886.14 C 790.28 882.52 783.66 881.22 777.71 878.41 C 772.39 875.77 766.49 874.53 761.40 871.43 C 751.99 867.19 742.73 862.61 733.65 857.72 C 728.45 855.57 723.74 852.31 718.28 850.82 C 711.07 848.77 704.35 845.41 697.52 842.41 C 693.69 840.60 690.02 838.20 685.73 837.66 C 678.64 836.83 672.43 833.04 665.57 831.34 C 659.59 828.86 652.93 828.87 647.06 826.09 C 640.68 823.32 633.55 824.03 626.95 822.20 C 621.38 820.72 615.59 820.44 610.00 819.07 C 606.27 818.31 602.77 816.77 599.08 815.90 C 592.38 814.66 585.30 816.65 578.79 814.26 C 565.54 808.76 550.92 810.78 536.97 810.45 C 532.82 810.73 528.83 809.55 524.92 808.37 C 517.05 806.21 508.86 805.73 500.95 803.81 C 493.23 802.99 485.43 804.06 477.72 803.31 C 470.23 801.71 462.52 803.14 455.01 801.73 C 447.38 801.77 439.87 800.13 432.74 797.48 C 427.03 795.17 420.43 798.23 414.99 795.13 C 409.52 791.95 403.02 791.95 396.98 790.73 C 387.40 790.54 378.31 787.24 369.28 784.41 C 363.92 782.81 358.90 780.12 353.35 779.16 C 347.62 778.09 342.60 774.96 337.02 773.45 C 324.63 769.98 313.58 763.16 301.65 758.52 C 293.11 754.70 285.50 749.19 277.14 745.03 C 269.94 741.19 263.85 735.70 257.32 730.89 C 250.25 726.73 243.41 722.15 236.98 717.05 C 230.94 712.22 226.62 705.16 219.32 702.04 C 214.95 700.28 211.59 696.93 208.38 693.62 C 200.31 685.35 191.74 677.56 184.03 668.95 C 174.60 655.96 163.53 644.03 156.13 629.68 C 154.01 625.62 150.44 622.54 148.42 618.44 C 145.42 611.24 141.41 604.54 138.13 597.48 C 134.59 591.89 134.07 585.04 130.50 579.48 C 128.51 576.43 128.59 572.75 128.27 569.29 C 127.00 562.20 123.79 555.42 124.48 548.07 C 123.32 535.67 123.02 523.10 124.45 510.71 C 124.72 506.71 124.00 502.56 125.39 498.72 C 126.47 495.45 127.75 492.22 128.28 488.81 C 128.98 481.26 132.66 474.49 134.85 467.34 C 139.42 456.14 143.18 444.57 149.39 434.12 C 152.40 427.36 157.64 421.91 160.46 415.05 C 162.35 410.43 166.23 407.09 168.87 402.94 C 173.74 395.28 180.96 389.57 186.16 382.16 C 196.77 370.79 208.09 360.09 219.04 349.05 C 223.51 344.46 228.75 340.75 233.61 336.61 C 238.79 332.15 244.35 328.14 250.04 324.36 C 260.29 318.83 269.85 312.13 279.93 306.31 C 289.45 301.99 298.63 296.96 308.15 292.62 C 311.47 291.20 314.83 289.86 318.04 288.18 C 323.39 285.22 329.69 285.06 335.27 282.66 C 342.69 280.43 350.13 277.96 357.88 277.18 C 361.75 276.35 365.07 273.69 369.11 273.50 C 374.36 272.98 379.60 272.14 384.74 270.89 C 390.31 269.60 395.72 267.09 401.57 267.52 C 410.20 267.23 418.92 268.13 427.48 266.85 Z" />
</g>
</svg>
